<svg xmlns="http://www.w3.org/2000/svg" xmlns:xlink="http://www.w3.org/1999/xlink" width="100" zoomAndPan="magnify" viewBox="0 0 75 37.5" height="50" preserveAspectRatio="xMidYMid meet" version="1.0"><defs><g/></defs><g fill="#8a9299" fill-opacity="1"><g transform="translate(3.077408, 24.052946)"><g><path d="M 0.96875 0 L 0.96875 -9.921875 L 3.546875 -9.921875 L 3.546875 -2.203125 L 7.75 -2.203125 L 7.75 0 Z M 0.96875 0 "/></g></g></g><g fill="#8a9299" fill-opacity="1"><g transform="translate(11.042169, 24.052946)"><g><path d="M 0.96875 0 L 0.96875 -9.921875 L 3.546875 -9.921875 L 3.546875 0 Z M 0.96875 0 "/></g></g></g><g fill="#8a9299" fill-opacity="1"><g transform="translate(15.555065, 24.052946)"><g><path d="M 8.140625 -6.546875 C 7.816406 -6.953125 7.429688 -7.273438 6.984375 -7.515625 C 6.546875 -7.765625 6.109375 -7.890625 5.671875 -7.890625 C 5.171875 -7.890625 4.710938 -7.765625 4.296875 -7.515625 C 3.890625 -7.265625 3.566406 -6.914062 3.328125 -6.46875 C 3.097656 -6.03125 2.984375 -5.546875 2.984375 -5.015625 C 2.984375 -4.472656 3.097656 -3.984375 3.328125 -3.546875 C 3.566406 -3.109375 3.890625 -2.765625 4.296875 -2.515625 C 4.710938 -2.265625 5.171875 -2.140625 5.671875 -2.140625 C 6.078125 -2.140625 6.5 -2.242188 6.9375 -2.453125 C 7.382812 -2.660156 7.785156 -2.941406 8.140625 -3.296875 L 9.65625 -1.671875 C 9.113281 -1.109375 8.472656 -0.65625 7.734375 -0.3125 C 6.992188 0.0195312 6.257812 0.1875 5.53125 0.1875 C 4.550781 0.1875 3.664062 -0.0351562 2.875 -0.484375 C 2.082031 -0.941406 1.457031 -1.5625 1 -2.34375 C 0.550781 -3.132812 0.328125 -4.015625 0.328125 -4.984375 C 0.328125 -5.941406 0.554688 -6.804688 1.015625 -7.578125 C 1.484375 -8.359375 2.117188 -8.96875 2.921875 -9.40625 C 3.734375 -9.851562 4.640625 -10.078125 5.640625 -10.078125 C 6.367188 -10.078125 7.09375 -9.921875 7.8125 -9.609375 C 8.53125 -9.304688 9.140625 -8.890625 9.640625 -8.359375 Z M 8.140625 -6.546875 "/></g></g></g><g fill="#8a9299" fill-opacity="1"><g transform="translate(25.344786, 24.052946)"><g><path d="M 0.96875 0 L 0.96875 -9.921875 L 8.796875 -9.921875 L 8.796875 -7.859375 L 3.546875 -7.859375 L 3.546875 -6 L 8.28125 -6 L 8.28125 -3.953125 L 3.546875 -3.9375 L 3.546875 -2.0625 L 8.9375 -2.0625 L 8.9375 0 Z M 0.96875 0 "/></g></g></g><g fill="#8a9299" fill-opacity="1"><g transform="translate(34.894008, 24.052946)"><g><path d="M 7.75 -3.953125 L 7.75 -9.921875 L 10.15625 -9.921875 L 10.15625 0 L 7.890625 0 L 3.390625 -5.9375 L 3.390625 0 L 0.96875 0 L 0.96875 -9.921875 L 3.234375 -9.921875 Z M 7.75 -3.953125 "/></g></g></g><g fill="#8a9299" fill-opacity="1"><g transform="translate(46.013546, 24.052946)"><g><path d="M 8.140625 -6.546875 C 7.816406 -6.953125 7.429688 -7.273438 6.984375 -7.515625 C 6.546875 -7.765625 6.109375 -7.890625 5.671875 -7.890625 C 5.171875 -7.890625 4.710938 -7.765625 4.296875 -7.515625 C 3.890625 -7.265625 3.566406 -6.914062 3.328125 -6.46875 C 3.097656 -6.03125 2.984375 -5.546875 2.984375 -5.015625 C 2.984375 -4.472656 3.097656 -3.984375 3.328125 -3.546875 C 3.566406 -3.109375 3.890625 -2.765625 4.296875 -2.515625 C 4.710938 -2.265625 5.171875 -2.140625 5.671875 -2.140625 C 6.078125 -2.140625 6.5 -2.242188 6.9375 -2.453125 C 7.382812 -2.660156 7.785156 -2.941406 8.140625 -3.296875 L 9.65625 -1.671875 C 9.113281 -1.109375 8.472656 -0.65625 7.734375 -0.3125 C 6.992188 0.0195312 6.257812 0.1875 5.53125 0.1875 C 4.550781 0.1875 3.664062 -0.0351562 2.875 -0.484375 C 2.082031 -0.941406 1.457031 -1.5625 1 -2.34375 C 0.550781 -3.132812 0.328125 -4.015625 0.328125 -4.984375 C 0.328125 -5.941406 0.554688 -6.804688 1.015625 -7.578125 C 1.484375 -8.359375 2.117188 -8.96875 2.921875 -9.40625 C 3.734375 -9.851562 4.640625 -10.078125 5.640625 -10.078125 C 6.367188 -10.078125 7.09375 -9.921875 7.8125 -9.609375 C 8.53125 -9.304688 9.140625 -8.890625 9.640625 -8.359375 Z M 8.140625 -6.546875 "/></g></g></g><g fill="#8a9299" fill-opacity="1"><g transform="translate(55.803267, 24.052946)"><g><path d="M 0.96875 0 L 0.96875 -9.921875 L 3.546875 -9.921875 L 3.546875 0 Z M 0.96875 0 "/></g></g></g><g fill="#007bff" fill-opacity="1"><g transform="translate(71.421654, 28.847522)"><g><path d="M -9.953125 -7.1875 L -9.953125 -9.78125 L -3.1875 -6.1875 L 0 -6.1875 L 0 -3.59375 L -3.109375 -3.59375 L -9.953125 0.078125 L -9.953125 -2.53125 L -5.6875 -4.890625 Z M -9.953125 -7.1875 "/></g></g></g><g fill="#007bff" fill-opacity="1"><g transform="translate(71.421654, 19.13316)"><g><path d="M 0 -11.046875 L 0 -8.28125 L -1.765625 -7.59375 L -1.765625 -3.296875 L 0 -2.59375 L 0 0.078125 L -9.953125 -4.203125 L -9.953125 -6.875 Z M -7.296875 -5.46875 L -3.75 -4.078125 L -3.75 -6.828125 Z M -7.296875 -5.46875 "/></g></g></g></svg>